<?xml version="1.0" standalone="no"?>
<!DOCTYPE svg PUBLIC "-//W3C//DTD SVG 20010904//EN"
 "http://www.w3.org/TR/2001/REC-SVG-20010904/DTD/svg10.dtd">
<svg version="1.0" xmlns="http://www.w3.org/2000/svg"
 width="320.000000pt" height="320.000000pt" viewBox="0 0 320.000000 320.000000"
 preserveAspectRatio="xMidYMid meet">
<metadata>
Created by potrace 1.11, written by Peter Selinger 2001-2013
</metadata>
<g transform="translate(0.000000,320.000000) scale(0.100000,-0.100000)"
fill="#000000" stroke="none">
<path d="M774 2943 c-6 -10 -22 -38 -36 -63 -39 -69 -424 -736 -471 -815 -23
-38 -49 -84 -59 -102 -9 -17 -60 -106 -113 -197 l-96 -167 134 -232 c74 -127
144 -248 155 -267 17 -31 275 -477 340 -590 15 -25 36 -61 47 -81 11 -19 40
-70 64 -112 l45 -77 817 0 817 0 23 38 c12 20 31 53 42 72 11 19 34 60 52 90
106 177 358 617 358 625 0 9 -61 103 -431 665 -85 129 -197 299 -249 378 l-94
142 -47 1 c-26 0 -251 0 -500 1 l-453 0 -55 -92 c-30 -51 -54 -94 -54 -96 0
-3 -11 -21 -23 -42 -25 -38 -201 -342 -245 -422 -14 -25 -35 -61 -47 -80 -12
-19 -27 -45 -33 -57 l-12 -22 506 0 c279 0 508 -1 509 -3 1 -2 82 -131 180
-288 98 -157 192 -307 210 -335 49 -76 204 -324 214 -343 9 -16 -33 -17 -675
-17 l-685 0 -39 65 c-22 36 -43 72 -47 80 -4 8 -20 38 -36 65 -17 28 -41 70
-55 95 -14 25 -33 59 -43 75 -10 17 -32 55 -49 85 -17 30 -40 71 -51 90 -28
46 -266 459 -308 532 l-32 57 27 48 c31 56 186 325 448 778 l184 320 662 1
661 0 43 -70 c24 -39 173 -282 331 -541 158 -259 295 -482 304 -497 64 -108
164 -268 166 -266 5 5 61 102 94 161 l31 55 -208 336 c-114 185 -211 344 -217
353 -5 10 -102 168 -215 351 l-205 332 -785 0 c-737 0 -786 -1 -796 -17z"/>
</g>
</svg>
